<?xml version="1.0" encoding="UTF-8"?>
<svg width="399px" height="400px" viewBox="0 0 399 400" version="1.1" xmlns="http://www.w3.org/2000/svg" xmlns:xlink="http://www.w3.org/1999/xlink">
    <!-- Generator: Sketch 44.1 (41455) - http://www.bohemiancoding.com/sketch -->
    <title>Arrow</title>
    <desc>Created with Sketch.</desc>
    <defs>
        <path d="M-3.6161919,356.731597 L30.6461304,359.088098 C36.2963302,361.416547 40.0817382,363.474609 42.0023543,365.262283 C43.9229705,367.049956 50.6776875,369.893518 62.2665054,373.792968 L12.1965105,373.792968 C12.5224655,372.042898 11.9792378,370.19232 10.5668276,368.241232 C9.74887999,367.111329 7.56914087,364.991192 4.67143563,362.524647 C3.26745238,361.329568 0.504909874,359.398551 -3.6161919,356.731597 Z" id="path-1"></path>
        <path d="M9.91973625,372.728603 L44.1820586,375.085104 C49.8322584,377.413553 53.6176663,379.471615 55.5382825,381.259288 C57.4588986,383.046962 64.2136157,385.890524 75.8024336,389.789974 L25.7324387,389.789974 C26.0583936,388.039904 25.515166,386.189326 24.1027558,384.238238 C23.2848081,383.108334 21.105069,380.988198 18.2073638,378.521653 C16.8033805,377.326574 14.040838,375.395557 9.91973625,372.728603 Z" id="path-2"></path>
    </defs>
    <g id="Page-1" stroke="none" stroke-width="1" fill="none" fill-rule="evenodd">
        <g id="Arrow" transform="translate(0.000000, -11.000000)">
            <g id="Rectangle-Copy" transform="translate(29.325157, 365.262283) rotate(-45.000000) translate(-29.325157, -365.262283) ">
                <use fill="#3E1818" fill-rule="evenodd" xlink:href="#path-1"></use>
                <path stroke="#3E1818" stroke-width="1" d="M-1.73369455,357.362253 C1.52322464,359.503789 3.76357519,361.09526 4.99552637,362.143904 C7.90246696,364.61831 10.117714,366.768154 10.9718427,367.948038 C12.3051756,369.789889 12.9113407,371.575602 12.7677213,373.292968 L59.2493227,373.292968 C49.3205954,369.863193 43.4896093,367.329665 41.6616947,365.628276 C39.8048256,363.899936 36.0876776,361.87577 30.5306675,359.581338 L-1.73369455,357.362253 Z"></path>
            </g>
            <g id="Rectangle-Copy" transform="translate(42.861085, 381.259288) scale(-1, 1) rotate(225.000000) translate(-42.861085, -381.259288) ">
                <use fill="#C26F1B" fill-rule="evenodd" xlink:href="#path-2"></use>
                <path stroke="#C26F1B" stroke-width="1" d="M11.8022336,373.359259 C15.0591528,375.500795 17.2995033,377.092266 18.5314545,378.14091 C21.4383951,380.615316 23.6536421,382.76516 24.5077709,383.945044 C25.8411037,385.786895 26.4472689,387.572608 26.3036495,389.289974 L72.7852508,389.289974 C62.8565236,385.860199 57.0255374,383.326671 55.1976228,381.625282 C53.3407537,379.896942 49.6236058,377.872776 44.0665956,375.578344 L11.8022336,373.359259 Z"></path>
            </g>
            <path d="M383.546794,6.39331684 L401.470512,45.9189638 C397.1744,40.9437605 394.008732,37.9588957 391.973508,36.9643695 C388.920672,35.4725803 386.635477,36.9643695 383.546794,36.9643695 C380.768493,36.9643695 378.581663,35.8064308 376.112883,36.9643695 C374.467029,37.7363287 371.434542,40.7211934 367.015422,45.9189638 L383.546794,6.39331684 Z" id="Polygon-Copy" stroke="#454545" fill="#454545" transform="translate(384.242967, 26.156140) rotate(45.000000) translate(-384.242967, -26.156140) "></path>
            <path d="M-59.2549328,210.846769 C210.825929,210.846769 383.100317,210.846769 457.568231,210.846769" id="Path-3" stroke="#454545" stroke-width="4" stroke-linecap="round" transform="translate(199.156649, 211.462038) rotate(-45.000000) translate(-199.156649, -211.462038) "></path>
        </g>
    </g>
</svg>