<?xml version="1.0" encoding="UTF-8"?>
<svg width="341px" height="181px" viewBox="0 0 341 181" version="1.1" xmlns="http://www.w3.org/2000/svg" xmlns:xlink="http://www.w3.org/1999/xlink">
    <!-- Generator: Sketch 44.1 (41455) - http://www.bohemiancoding.com/sketch -->
    <title>Group</title>
    <desc>Created with Sketch.</desc>
    <defs></defs>
    <g id="Page-1" stroke="none" stroke-width="1" fill="none" fill-rule="evenodd">
        <g id="a" transform="translate(-180.000000, -184.000000)">
            <g id="Group" transform="translate(184.000000, 185.000000)">
                <path d="M0.595744681,113.905398 C48.5445403,49.7897715 73.8402446,15.7990833 76.4828578,11.9333333 L325.917663,11.9333333" id="Path-2" stroke="#154268" stroke-width="11"></path>
                <ellipse id="Oval" stroke="#FFFFFF" fill="#FFFFFF" cx="325.87234" cy="11.9333333" rx="10.1276596" ry="11.9333333"></ellipse>
                <path d="M0,147.418321 C17.2036531,124.463344 26.2795542,112.293838 27.2277031,110.909804 L116.722962,110.909804" id="Path-2-Copy" stroke="#154268" stroke-width="7" transform="translate(58.361481, 129.164062) scale(1, -1) translate(-58.361481, -129.164062) "></path>
                <ellipse id="Oval-Copy" stroke="#FFFFFF" fill="#FFFFFF" transform="translate(117.302445, 147.351101) scale(1, -1) translate(-117.302445, -147.351101) " cx="117.302445" cy="147.351101" rx="3.6337251" ry="4.27242798"></ellipse>
                <path d="M19.0638298,174.794792 C36.2674829,151.839814 45.3433839,139.670308 46.2915329,138.286275 L135.786792,138.286275" id="Path-2-Copy" stroke="#154268" stroke-width="3" transform="translate(77.425311, 156.540533) scale(1, -1) translate(-77.425311, -156.540533) "></path>
                <ellipse id="Oval-Copy" stroke="#FFFFFF" fill="#FFFFFF" transform="translate(135.770530, 174.727572) scale(1, -1) translate(-135.770530, -174.727572) " cx="135.77053" cy="174.727572" rx="3.6337251" ry="4.27242798"></ellipse>
            </g>
        </g>
    </g>
</svg>